<?xml version="1.0" encoding="utf-8"?>
<!-- Generator: Adobe Illustrator 16.0.0, SVG Export Plug-In . SVG Version: 6.00 Build 0)  -->
<!DOCTYPE svg PUBLIC "-//W3C//DTD SVG 1.1//EN" "http://www.w3.org/Graphics/SVG/1.1/DTD/svg11.dtd">
<svg version="1.1" id="Capa_1" xmlns="http://www.w3.org/2000/svg" xmlns:xlink="http://www.w3.org/1999/xlink" x="0px" y="0px"
	 width="1000px" height="1000px" viewBox="0 0 1000 1000" enable-background="new 0 0 1000 1000" xml:space="preserve">
<g>
	<g>
		<path fill="#FFFFFF" d="M927.722,480.471H783.168V19.533c0-7.898-4.76-15.021-12.057-18.045
			c-7.301-3.025-15.701-1.35-21.285,4.232l-55.33,55.328L639.17,5.723c-7.627-7.627-19.994-7.627-27.623,0l-55.328,55.328
			L500.896,5.723c-7.627-7.627-19.994-7.627-27.623,0l-55.328,55.328l-55.33-55.328c-7.627-7.627-19.994-7.627-27.621,0
			l-55.328,55.328L224.342,5.723c-7.627-7.627-19.994-7.627-27.623,0L141.39,61.051L86.064,5.723
			c-7.58-7.58-19.84-7.619-27.486-0.107c-4.016,3.947-5.963,9.207-5.828,14.432v878.395c0,56,45.559,101.559,101.559,101.559
			h691.359c0.004,0,0.006,0,0.01,0c0.006,0,0.012,0,0.018,0c56,0,101.559-45.559,101.559-101.559V500
			C947.254,489.213,938.51,480.471,927.722,480.471z M154.308,960.938c-34.463,0-62.498-28.037-62.498-62.498V66.711l35.77,35.77
			c7.627,7.627,19.994,7.627,27.623,0l55.328-55.328l55.328,55.328c7.627,7.627,19.994,7.627,27.623,0l55.328-55.328l55.33,55.328
			c7.627,7.627,19.994,7.627,27.621,0l55.328-55.328l55.328,55.328c7.627,7.627,19.994,7.627,27.623,0l55.328-55.328l55.328,55.328
			c7.629,7.627,19.996,7.627,27.621,0l35.799-35.797V500c0,0.178,0.021,0.352,0.027,0.529v397.909
			c0,23.56,8.087,45.25,21.597,62.498L154.308,960.938L154.308,960.938z M908.191,898.44c0,34.461-28.037,62.498-62.498,62.498
			s-62.498-28.037-62.498-62.498V519.531h124.996V898.44z"/>
	</g>
</g>
<g>
	<g>
		<path fill="#FFFFFF" d="M417.959,310.264c-19.385,0-35.154-13.504-35.154-30.1c0-16.598,15.771-30.102,35.154-30.102
			c19.385,0,35.154,13.504,35.154,30.102c0,10.787,8.744,19.531,19.531,19.531s19.531-8.744,19.531-19.531
			c0-31.838-23.211-58.701-54.686-66.713v-13.23c0-10.787-8.744-19.531-19.531-19.531s-19.531,8.744-19.531,19.531v13.23
			c-31.477,8.012-54.686,34.877-54.686,66.713c0,38.135,33.295,69.16,74.217,69.16c19.385,0,35.154,13.504,35.154,30.102
			s-15.77,30.1-35.154,30.1s-35.154-13.504-35.154-30.1c0-10.787-8.744-19.531-19.531-19.531s-19.531,8.744-19.531,19.531
			c0,31.838,23.211,58.701,54.686,66.713v15.938c0,10.787,8.744,19.531,19.531,19.531s19.531-8.744,19.531-19.531v-15.938
			c31.477-8.012,54.686-34.875,54.686-66.713C492.176,341.291,458.881,310.264,417.959,310.264z"/>
	</g>
</g>
<g>
	<g>
		<path fill="#FFFFFF" d="M614.181,310.266h-38.066c-10.787,0-19.531,8.744-19.531,19.531s8.744,19.531,19.531,19.531h38.066
			c10.787,0,19.531-8.744,19.531-19.531S624.969,310.266,614.181,310.266z"/>
	</g>
</g>
<g>
	<g>
		<path fill="#FFFFFF" d="M259.804,310.266h-38.066c-10.787,0-19.531,8.744-19.531,19.531s8.744,19.531,19.531,19.531h38.066
			c10.787,0,19.531-8.744,19.531-19.531S270.592,310.266,259.804,310.266z"/>
	</g>
</g>
<g>
	<g>
		<path fill="#FFFFFF" d="M624.062,527.358h-309.42c-10.787,0-19.531,8.743-19.531,19.531c0,10.787,8.744,19.531,19.531,19.531
			h309.42c10.787,0,19.531-8.744,19.531-19.531C643.592,536.102,634.849,527.358,624.062,527.358z"/>
	</g>
</g>
<g>
	<g>
		<path fill="#FFFFFF" d="M225.66,533.08c-3.633-3.633-8.672-5.723-13.809-5.723s-10.176,2.09-13.809,5.723
			s-5.723,8.672-5.723,13.809s2.09,10.176,5.723,13.809s8.672,5.723,13.809,5.723s10.176-2.09,13.809-5.723
			s5.723-8.672,5.723-13.809S229.293,536.713,225.66,533.08z"/>
	</g>
</g>
<g>
	<g>
		<path fill="#FFFFFF" d="M624.062,656.26h-309.42c-10.787,0-19.531,8.744-19.531,19.531s8.744,19.531,19.531,19.531h309.42
			c10.787,0,19.531-8.744,19.531-19.531C643.592,665.004,634.849,656.26,624.062,656.26z"/>
	</g>
</g>
<g>
	<g>
		<path fill="#FFFFFF" d="M225.66,661.983c-3.633-3.633-8.672-5.723-13.809-5.723s-10.176,2.09-13.809,5.723
			c-3.633,3.632-5.723,8.672-5.723,13.809s2.09,10.176,5.723,13.809s8.672,5.723,13.809,5.723s10.176-2.09,13.809-5.723
			s5.723-8.672,5.723-13.809S229.293,665.615,225.66,661.983z"/>
	</g>
</g>
<g>
	<g>
		<path fill="#FFFFFF" d="M624.062,785.162h-309.42c-10.787,0-19.531,8.743-19.531,19.531c0,10.787,8.744,19.531,19.531,19.531
			h309.42c10.787,0,19.531-8.744,19.531-19.531C643.594,793.906,634.849,785.162,624.062,785.162z"/>
	</g>
</g>
<g>
	<g>
		<path fill="#FFFFFF" d="M225.66,790.885c-3.633-3.633-8.672-5.723-13.809-5.723s-10.176,2.09-13.809,5.723
			s-5.723,8.672-5.723,13.809s2.09,10.176,5.723,13.809s8.672,5.723,13.809,5.723s10.176-2.09,13.809-5.723
			s5.723-8.672,5.723-13.809S229.293,794.518,225.66,790.885z"/>
	</g>
</g>
</svg>
