<?xml version="1.0" encoding="utf-8"?>
<!-- Generator: Adobe Illustrator 16.0.0, SVG Export Plug-In . SVG Version: 6.00 Build 0)  -->
<!DOCTYPE svg PUBLIC "-//W3C//DTD SVG 1.1//EN" "http://www.w3.org/Graphics/SVG/1.1/DTD/svg11.dtd">
<svg version="1.1" id="Layer_1" xmlns="http://www.w3.org/2000/svg" xmlns:xlink="http://www.w3.org/1999/xlink" x="0px" y="0px"
	 width="891.525px" height="749.707px" viewBox="0 0 891.525 749.707" enable-background="new 0 0 891.525 749.707"
	 xml:space="preserve">
<g>
	
		<line fill="none" stroke="#FFFFFF" stroke-width="16" stroke-miterlimit="10" x1="746.733" y1="501.427" x2="746.733" y2="348.974"/>
	
		<line fill="none" stroke="#FFFFFF" stroke-width="16" stroke-miterlimit="10" x1="746.733" y1="317.032" x2="746.733" y2="261.861"/>
</g>
<polygon fill="none" stroke="#FFFFFF" stroke-width="16" stroke-miterlimit="10" points="642.921,213.947 538.385,253.15 
	642.921,292.351 747.459,253.15 "/>
<line fill="none" stroke="#FFFFFF" stroke-width="16" stroke-miterlimit="10" x1="537.657" y1="605.965" x2="537.657" y2="266.216"/>
<line fill="none" stroke="#FFFFFF" stroke-width="16" stroke-miterlimit="10" x1="642.195" y1="253.15" x2="642.195" y2="148.612"/>
<line fill="none" stroke="#FFFFFF" stroke-width="16" stroke-miterlimit="10" x1="642.195" y1="305.417" x2="642.195" y2="501.427"/>
<line opacity="0.2" fill="none" stroke="#020202" stroke-width="21" stroke-miterlimit="10" enable-background="new    " x1="668.33" y1="318.485" x2="668.33" y2="475.292"/>
<polyline fill="none" stroke="#FFFFFF" stroke-width="16" stroke-miterlimit="10" points="746.733,409.955 877.406,514.493 
	877.406,749.707 "/>
<polyline fill="none" stroke="#FFFFFF" stroke-width="16" stroke-miterlimit="10" points="537.657,462.224 433.121,540.627 
	433.121,592.899 "/>
<line opacity="0.2" fill="none" stroke="#020202" stroke-width="21" stroke-miterlimit="10" enable-background="new    " x1="825.975" y1="534.094" x2="825.975" y2="690.902"/>
<path fill="none" stroke="#FFFFFF" stroke-width="16" stroke-miterlimit="10" d="M167.202,450.566
	c10.93-107.624,101.821-191.608,212.332-191.608c62.698,0,119.083,27.034,158.131,70.083"/>
<g>
	
		<line fill="none" stroke="#FFFFFF" stroke-width="16" stroke-miterlimit="10" x1="178.792" y1="342.927" x2="70.074" y2="236.056"/>
	<line fill="none" stroke="#FFFFFF" stroke-width="16" stroke-miterlimit="10" x1="47.294" y1="213.663" x2="7.949" y2="174.985"/>
</g>
<line fill="none" stroke="#FFFFFF" stroke-width="16" stroke-miterlimit="10" x1="236.567" y1="281.74" x2="210.213" y2="233.269"/>
<line fill="none" stroke="#FFFFFF" stroke-width="16" stroke-miterlimit="10" x1="289.38" y1="253.15" x2="263.245" y2="148.612"/>
<g>
	
		<line fill="none" stroke="#FFFFFF" stroke-width="16" stroke-miterlimit="10" x1="436.307" y1="238.588" x2="450.065" y2="86.759"/>
	<line fill="none" stroke="#FFFFFF" stroke-width="16" stroke-miterlimit="10" x1="452.95" y1="54.946" x2="457.93" y2="0"/>
</g>
<line fill="none" stroke="#FFFFFF" stroke-width="16" stroke-miterlimit="10" x1="371.871" y1="228.461" x2="370.745" y2="173.298"/>
</svg>
