<?xml version="1.0" encoding="utf-8"?>
<!-- Generator: Adobe Illustrator 16.0.0, SVG Export Plug-In . SVG Version: 6.00 Build 0)  -->
<!DOCTYPE svg PUBLIC "-//W3C//DTD SVG 1.1//EN" "http://www.w3.org/Graphics/SVG/1.1/DTD/svg11.dtd">
<svg version="1.1" id="Layer_1" xmlns="http://www.w3.org/2000/svg" xmlns:xlink="http://www.w3.org/1999/xlink" x="0px" y="0px"
	 width="1000px" height="1000px" viewBox="0 0 1000 1000" enable-background="new 0 0 1000 1000" xml:space="preserve">
<g>
	<line fill="none" stroke="#020202" stroke-width="20" stroke-miterlimit="10" x1="754.53" y1="592.063" x2="754.53" y2="439.609"/>
	<line fill="none" stroke="#020202" stroke-width="20" stroke-miterlimit="10" x1="754.53" y1="407.667" x2="754.53" y2="352.497"/>
</g>
<polygon fill="none" stroke="#020202" stroke-width="20" stroke-miterlimit="10" points="650.718,304.582 546.182,343.785 
	650.718,382.986 755.256,343.785 "/>
<line fill="none" stroke="#020202" stroke-width="20" stroke-miterlimit="10" x1="545.454" y1="696.601" x2="545.454" y2="356.851"/>
<line fill="none" stroke="#020202" stroke-width="20" stroke-miterlimit="10" x1="649.992" y1="343.785" x2="649.992" y2="239.247"/>
<line fill="none" stroke="#020202" stroke-width="20" stroke-miterlimit="10" x1="649.992" y1="396.052" x2="649.992" y2="592.063"/>
<line opacity="0.2" fill="none" stroke="#020202" stroke-width="20" stroke-miterlimit="10" enable-background="new    " x1="676.127" y1="409.12" x2="676.127" y2="565.928"/>
<polyline fill="none" stroke="#020202" stroke-width="20" stroke-miterlimit="10" points="754.53,500.59 885.203,605.128 
	885.203,840.342 "/>
<polyline fill="none" stroke="#020202" stroke-width="20" stroke-miterlimit="10" points="545.454,552.859 440.918,631.263 
	440.918,683.534 "/>
<line opacity="0.2" fill="none" stroke="#020202" stroke-width="20" stroke-miterlimit="10" enable-background="new    " x1="833.771" y1="624.729" x2="833.771" y2="781.537"/>
<path fill="none" stroke="#020202" stroke-width="20" stroke-miterlimit="10" d="M174.999,541.201
	c10.93-107.624,101.821-191.608,212.332-191.608c62.698,0,119.083,27.034,158.131,70.083"/>
<g>
	
		<line fill="none" stroke="#020202" stroke-width="20" stroke-miterlimit="10" x1="186.589" y1="433.563" x2="77.871" y2="326.691"/>
	<line fill="none" stroke="#020202" stroke-width="20" stroke-miterlimit="10" x1="55.091" y1="304.298" x2="15.746" y2="265.621"/>
</g>
<line fill="none" stroke="#020202" stroke-width="20" stroke-miterlimit="10" x1="244.364" y1="372.375" x2="218.01" y2="323.904"/>
<line fill="none" stroke="#020202" stroke-width="20" stroke-miterlimit="10" x1="297.177" y1="343.785" x2="271.042" y2="239.247"/>
<g>
	
		<line fill="none" stroke="#020202" stroke-width="20" stroke-miterlimit="10" x1="444.104" y1="329.224" x2="457.862" y2="177.394"/>
	
		<line fill="none" stroke="#020202" stroke-width="20" stroke-miterlimit="10" x1="460.747" y1="145.581" x2="465.727" y2="90.635"/>
</g>
<line fill="none" stroke="#020202" stroke-width="20" stroke-miterlimit="10" x1="379.668" y1="319.096" x2="378.542" y2="263.934"/>
</svg>
