<?xml version="1.0" encoding="utf-8"?>
<!-- Generator: Adobe Illustrator 16.0.0, SVG Export Plug-In . SVG Version: 6.00 Build 0)  -->
<!DOCTYPE svg PUBLIC "-//W3C//DTD SVG 1.1//EN" "http://www.w3.org/Graphics/SVG/1.1/DTD/svg11.dtd">
<svg version="1.1" id="Capa_1" xmlns="http://www.w3.org/2000/svg" xmlns:xlink="http://www.w3.org/1999/xlink" x="0px" y="0px"
	 width="1000px" height="1000px" viewBox="0 0 1000 1000" enable-background="new 0 0 1000 1000" xml:space="preserve">
<g>
	<path fill="#FFFFFF" d="M452.685,325.037c-0.094-43.872-11.293-85.13-31.712-117.432V0H204.79v207.208
		c-20.603,32.493-31.804,74.082-31.711,118.371c0.028,12.987,1.039,25.82,3.014,38.349l-104.48,82.101v553.971h482.539v-553.96
		l-104.402-82.128C451.726,351.208,452.712,338.196,452.685,325.037z M359.116,61.856v100.688h-92.473V61.856H359.116z
		 M492.295,476.08v462.063H133.466V476.09l111.518-87.633l-4.81-19.406c-3.445-13.895-5.209-28.564-5.241-43.602
		c-0.072-34.846,9.34-67.876,25.826-90.621l5.885-8.119v-2.308h92.473v2.646l5.852,8.107c16.362,22.662,25.787,55.47,25.859,90.013
		c0.033,15.142-1.699,29.93-5.145,43.948l-4.757,19.363L492.295,476.08z"/>
	<path fill="#FFFFFF" d="M195.322,876.288h235.115V553.845H195.322V876.288z M257.177,615.7h111.404v198.732H257.177V615.7z"/>
	<path fill="#FFFFFF" d="M635.726,609.515l24.499,390.484h243.666l24.499-390.484H635.726z M862.53,671.371l-3.88,61.855H705.467
		l-3.881-61.855H862.53z M718.322,938.144l-8.976-143.062h145.423l-8.976,143.062H718.322z"/>
</g>
</svg>
