<?xml version="1.0" encoding="utf-8"?>
<!-- Generator: Adobe Illustrator 16.0.0, SVG Export Plug-In . SVG Version: 6.00 Build 0)  -->
<!DOCTYPE svg PUBLIC "-//W3C//DTD SVG 1.1//EN" "http://www.w3.org/Graphics/SVG/1.1/DTD/svg11.dtd">
<svg version="1.1" id="Layer_1" xmlns="http://www.w3.org/2000/svg" xmlns:xlink="http://www.w3.org/1999/xlink" x="0px" y="0px"
	 width="1000px" height="1000px" viewBox="0 0 1000 1000" enable-background="new 0 0 1000 1000" xml:space="preserve">
<g>
	<g>
		<path fill="#FFFFFF" stroke="#FFFFFF" stroke-width="20" stroke-miterlimit="10" d="M197.724,136.318
			c0,0,34.432-4.788,46.481-68.585H714.18"/>
		<path fill="#FFFFFF" stroke="#FFFFFF" stroke-width="20" stroke-miterlimit="10" d="M805.319,136.318
			c0,0-34.433-4.788-46.481-68.585H288.863"/>
	</g>
	<g>
		<path fill="#FFFFFF" stroke="#FFFFFF" stroke-width="20" stroke-miterlimit="10" d="M197.724,863.682
			c0,0,34.432,4.789,46.481,68.586H714.18"/>
		<path fill="#FFFFFF" stroke="#FFFFFF" stroke-width="20" stroke-miterlimit="10" d="M805.319,863.682
			c0,0-34.433,4.789-46.481,68.586H288.863"/>
	</g>
	<g>
		<path fill="#FFFFFF" d="M805.319,853.682c0,5.5-4.5,10-10,10H207.724c-5.5,0-10-4.5-10-10V146.318c0-5.5,4.5-10,10-10h587.595
			c5.5,0,10,4.5,10,10V853.682z"/>
		<path fill="none" stroke="#FFFFFF" stroke-width="20" stroke-miterlimit="10" d="M805.319,853.682c0,5.5-4.5,10-10,10H207.724
			c-5.5,0-10-4.5-10-10V146.318c0-5.5,4.5-10,10-10h587.595c5.5,0,10,4.5,10,10V853.682z"/>
	</g>
	<path display="none" fill="#FFFFFF" stroke="#FFFFFF" stroke-width="20" stroke-miterlimit="10" d="M501.504,300.117
		c64.607,0,117.012,52.381,117.012,116.995c0,64.589-52.404,116.972-117.012,116.972c-64.572,0-116.977-52.382-116.977-116.972
		C384.527,352.498,436.932,300.117,501.504,300.117z"/>
</g>
<rect x="591" y="39" fill="#FFFFFF" stroke="#FFFFFF" stroke-width="20" stroke-miterlimit="10" width="274" height="16"/>
</svg>
