<?xml version="1.0" encoding="utf-8"?>
<!-- Generator: Adobe Illustrator 16.0.0, SVG Export Plug-In . SVG Version: 6.00 Build 0)  -->
<!DOCTYPE svg PUBLIC "-//W3C//DTD SVG 1.1//EN" "http://www.w3.org/Graphics/SVG/1.1/DTD/svg11.dtd">
<svg version="1.1" id="Capa_1" xmlns="http://www.w3.org/2000/svg" xmlns:xlink="http://www.w3.org/1999/xlink" x="0px" y="0px"
	 width="1000px" height="1000px" viewBox="0 0 1000 1000" enable-background="new 0 0 1000 1000" xml:space="preserve">
<g>
	<g>
		<path fill="#FFFFFF" d="M558.594,881.426c-10.781,0-19.531,8.75-19.531,19.531s8.75,19.531,19.531,19.531
			s19.531-8.75,19.531-19.531S569.375,881.426,558.594,881.426z"/>
	</g>
</g>
<g>
	<g>
		<path fill="#FFFFFF" d="M284.179,391.192c-10.787,0-19.531,8.744-19.531,19.531v373.046c0,10.788,8.744,19.531,19.531,19.531
			s19.531-8.743,19.531-19.531V410.723C303.711,399.936,294.967,391.192,284.179,391.192z"/>
	</g>
</g>
<g>
	<g>
		<path fill="#FFFFFF" d="M440.429,391.192c-10.787,0-19.531,8.744-19.531,19.531v373.046c0,10.788,8.744,19.531,19.531,19.531
			s19.531-8.743,19.531-19.531V410.723C459.961,399.936,451.217,391.192,440.429,391.192z"/>
	</g>
</g>
<g>
	<g>
		<path fill="#FFFFFF" d="M833.008,314.453h-97.656v-59.1c30.615-22.951,45.166-61.744,36.537-100.047
			c-8.072-35.918-37.721-65.23-73.766-72.939c-19.162-4.111-38.461-2.656-56.045,4.029c-17.633-27.799-48.598-45.381-82.508-45.381
			c-12.781,0-25.271,2.479-36.82,7.248C490.058,17.426,446.959,0,402.344,0c-59.016,0-114.055,30.064-146.543,79.256
			c-102.09-5.648-186.465,75.346-186.465,175.217v234.375c0,32.309,26.723,58.593,59.57,58.593c7.205,0,14.109-1.31,20.508-3.697
			v358.601c0,53.848,43.809,97.656,97.656,97.656h390.625c53.848,0,97.656-43.809,97.656-97.656V843.75h97.656
			c53.848,0,97.656-43.809,97.656-97.656V412.11C930.664,358.262,886.855,314.453,833.008,314.453z M696.289,882.813h-59.59
			c-10.787,0-19.531,8.744-19.531,19.531s8.744,19.336,19.531,19.336h56.23c-8.063,22.732-29.773,39.258-55.234,39.258H247.07
			c-25.461,0-47.172-16.33-55.234-39.063h288.652c10.787,0,19.531-8.744,19.531-19.531s-8.744-19.531-19.531-19.531H188.476V488.418
			v-137.82c43.873-6.623,81.863-34.254,101.836-75.205c4.074,0,7.664,1.41,10.369,4.064c22.043,21.676,51.211,33.611,82.131,33.611
			c32.047,0,61.963-12.686,84.248-35.732c1.191-1.234,2.877-1.943,4.619-1.943c30.404,0,50.299,6.494,59.135,19.299
			c7.283,10.557,7.278,25.225,7.271,37.012v79.021c0,25.461,16.33,47.172,39.063,55.234v317.813
			c0,10.787,8.744,19.531,19.531,19.531s19.531-8.744,19.531-19.531V465.957c22.732-8.063,39.063-29.771,39.063-55.234V273.098
			c13.682,2.73,27.645,2.748,41.016,0.014V882.813z M644.595,228.412c-6.055-3.08-13.273-2.793-19.066,0.76
			c-5.791,3.551-9.32,9.855-9.32,16.648v164.902c0,10.77-8.762,19.531-19.531,19.531s-19.531-8.762-19.531-19.531v-79.008
			c0.006-15.383,0.016-38.631-14.182-59.209c-16.561-24.006-47.273-36.178-91.285-36.178c-12.285,0-24.211,5.057-32.713,13.865
			c-14.848,15.355-34.791,23.811-56.154,23.811c-20.611,0-40.053-7.955-54.756-22.416c-10.025-9.842-23.43-15.26-37.744-15.26
			c-14.803,0-28.561,8.588-35.051,21.879c-16.371,33.523-49.512,54.545-86.484,54.861c-10.721,0.092-19.365,8.809-19.365,19.531
			v155.321c-0.688,11.503-9.631,20.458-20.506,20.458c-11.115,0-20.508-8.945-20.508-19.531V254.473
			c0-75.383,61.684-136.43,137.514-136.43c5.893,0,11.816,0.375,17.736,1.135c7.9,1.014,15.621-2.873,19.518-9.816
			C307.494,66,353.16,39.063,402.344,39.063c38.535,0,75.688,16.826,101.928,46.166c6.36,7.113,16.93,8.59,24.999,3.486
			c8.931-5.65,19.409-8.637,30.3-8.637c24.863,0,47.086,15.744,55.299,39.174c1.998,5.703,6.525,10.162,12.26,12.072
			c5.732,1.91,12.029,1.059,17.049-2.309c13.313-8.926,29.559-11.928,45.76-8.451c21.094,4.512,39.121,22.32,43.84,43.318
			C744.894,213.227,694.314,253.703,644.595,228.412z M735.351,431.641h78.125v294.922h-78.125V431.641z M891.601,746.094
			c0,32.309-26.285,58.594-58.594,58.594h-97.656v-39.063h97.656c10.787,0,19.531-8.744,19.531-19.531V412.11
			c0-10.787-8.744-19.531-19.531-19.531h-97.656v-39.063h97.656c32.309,0,58.594,26.285,58.594,58.594V746.094z"/>
	</g>
</g>
</svg>
