<?xml version="1.0" encoding="utf-8"?>
<!-- Generator: Adobe Illustrator 16.0.0, SVG Export Plug-In . SVG Version: 6.00 Build 0)  -->
<!DOCTYPE svg PUBLIC "-//W3C//DTD SVG 1.1//EN" "http://www.w3.org/Graphics/SVG/1.1/DTD/svg11.dtd">
<svg version="1.1" id="Layer_1" xmlns="http://www.w3.org/2000/svg" xmlns:xlink="http://www.w3.org/1999/xlink" x="0px" y="0px"
	 width="1000px" height="1000px" viewBox="0 0 1000 1000" enable-background="new 0 0 1000 1000" xml:space="preserve">
<g>
	<g>
		<path fill="none" stroke="#FFFFFF" stroke-width="20" stroke-miterlimit="10" d="M79.5,737.5c0,0,172-648,854-460
			C933.5,277.5,759.5,789.5,79.5,737.5z"/>
	</g>
	<path fill="none" stroke="#FFFFFF" stroke-width="20" stroke-miterlimit="10" d="M168.705,544.259
		c0,0,162.795,13.241,200.795,41.241s-96.776-151.072-122.388-144.536"/>
	<path fill="none" stroke="#FFFFFF" stroke-width="20" stroke-miterlimit="10" d="M369.205,336.286
		c0,0,156.295,42.792,198.295,127.503c0,0-44.609-196.117-59.815-191.631"/>
	<path fill="none" stroke="#FFFFFF" stroke-width="20" stroke-miterlimit="10" d="M676.929,240.924
		c0,0,66.696,118.156,66.374,156.351c-0.323,38.193,51.709-131.256,35.718-146.172"/>
</g>
<path fill="none" stroke="#FFFFFF" stroke-width="20" stroke-miterlimit="10" d="M209.5,36.5"/>
<path display="none" d="M242.5,27.5c-6.449,0-6.449,10,0,10S248.948,27.5,242.5,27.5z"/>
<path display="none" d="M243.5,53.5c-2.497,0-4.023,1.501-4.586,3.339c-0.801-0.81-1.936-1.339-3.414-1.339c-6.449,0-6.449,10,0,10
	c2.497,0,4.023-1.501,4.586-3.339c0.801,0.81,1.936,1.339,3.414,1.339C249.948,63.5,249.948,53.5,243.5,53.5z"/>
<path display="none" d="M239.5,54.5c-6.449,0-6.449,10,0,10S245.948,54.5,239.5,54.5z"/>
<path display="none" d="M217.5,27.5c-6.449,0-6.449,10,0,10S223.948,27.5,217.5,27.5z"/>
<path display="none" d="M216.5,44.5c-6.449,0-6.449,10,0,10S222.948,44.5,216.5,44.5z"/>
<path display="none" d="M212.5,57.5c-6.449,0-6.449,10,0,10S218.948,57.5,212.5,57.5z"/>
<path display="none" d="M230.5,37.5c-6.449,0-6.449,10,0,10S236.948,37.5,230.5,37.5z"/>
</svg>
