<?xml version="1.0" encoding="utf-8"?>
<!-- Generator: Adobe Illustrator 16.0.0, SVG Export Plug-In . SVG Version: 6.00 Build 0)  -->
<!DOCTYPE svg PUBLIC "-//W3C//DTD SVG 1.1//EN" "http://www.w3.org/Graphics/SVG/1.1/DTD/svg11.dtd">
<svg version="1.1" id="Layer_1" xmlns="http://www.w3.org/2000/svg" xmlns:xlink="http://www.w3.org/1999/xlink" x="0px" y="0px"
	 width="1000px" height="1000px" viewBox="0 0 1000 1000" enable-background="new 0 0 1000 1000" xml:space="preserve">
<g>
	<path fill="#87995C" stroke="#010101" stroke-width="2" stroke-miterlimit="10" d="M615.35,765.543
		c0,0,191.034-26.093,165.012-154.316c0,0-57.094-91.016-75.278-74.734c0,0-15.862-33.6,12.043-50.525
		c0,0-74.532,31.919-54.707,55.174c0,0,80.184,126.565,0,97.01"/>
	
		<ellipse fill="#3E3E3E" stroke="#010101" stroke-width="3" stroke-miterlimit="10" cx="332.794" cy="757.534" rx="95.939" ry="75.286"/>
	<path fill="#87995C" stroke="#010101" stroke-width="2" stroke-miterlimit="10" d="M565.937,589.989l36.064,172.072
		c-343.049,84.851-295.372-172.072-295.372-172.072"/>
	
		<ellipse fill="#FFFFFF" stroke="#010101" stroke-width="3" stroke-miterlimit="10" cx="282.646" cy="453.24" rx="62.41" ry="67.242"/>
	<g id="Layer_3_1_">
		<polygon fill="#DCDBDB" stroke="#010101" stroke-miterlimit="10" points="309.333,488.923 360.359,588.117 444.301,461.27 
			377.459,442.347 		"/>
	</g>
	<path fill="#EAEAE8" stroke="#010101" stroke-width="3" stroke-miterlimit="10" d="M418.492,477.625
		c65.776,0,119.102,49.715,119.102,111.04c0,61.31-53.326,111.027-119.102,111.027c-57.556,0-105.579-38.058-116.688-88.646
		c-1.587-7.23-2.411-14.718-2.411-22.382C299.39,527.342,352.711,477.625,418.492,477.625z"/>
	
		<ellipse fill="#3E3E3E" stroke="#010101" stroke-width="3" stroke-miterlimit="10" cx="535.138" cy="781.955" rx="95.939" ry="75.287"/>
	<path fill="#FFFFFF" stroke="#010101" stroke-width="3" stroke-miterlimit="10" d="M328.662,515.194
		c0,0-40.192-57.074,44.206-49.838c0,0-44.88-16.337-60.491,23.118c-15.613,39.466-17.7,305.2-78.108,273.865
		c0,0-33.316-18.034-20.767-34.619c0,0-20.208,89.626,66.345,82.123C366.411,802.334,328.662,515.194,328.662,515.194z"/>
	<path fill="#FFFFFF" stroke="#010101" stroke-width="3" stroke-miterlimit="10" d="M452.589,520.463l58.768,293.086
		c0,0,137.054-46.803,154.552-107.272c0,0-29.008-27.821-11.571-65.078l-62.795-168.347
		C591.537,472.845,463.645,536.996,452.589,520.463z"/>
	<path fill="#303030" stroke="#010101" stroke-width="3" stroke-miterlimit="10" d="M425.781,99.036
		C699.865-30.109,743.234,246.847,743.234,246.847S151.705,228.178,425.781,99.036z"/>
	<path fill="#87995C" stroke="#010101" stroke-width="2" stroke-miterlimit="10" d="M510.32,218.634
		c109.488,0,198.256,66.864,198.256,149.362c0,82.49-88.764,149.362-198.256,149.362c-109.505,0-198.26-66.879-198.26-149.362
		C312.057,285.498,400.809,218.628,510.32,218.634z"/>
	<path fill="#303030" stroke="#010101" stroke-width="3" stroke-miterlimit="10" d="M611.177,339.744
		C481.279,228.562,341.02,232.727,341.02,232.727l12.606-82.583c189.251-197.77,290.943,44.403,290.943,44.403l-23.485,153.918
		C617.788,345.485,614.483,342.579,611.177,339.744z"/>
	<path fill="#303030" stroke="#010101" stroke-width="3" stroke-miterlimit="10" d="M174.702,244.093l173.419-13.866
		c153.168,11.856,280.06,115.739,280.06,115.739l-236.657,36.864C353.208,242.529,174.702,244.089,174.702,244.093z"/>
	<path fill="#303030" stroke="#010101" stroke-width="3" stroke-miterlimit="10" d="M623.248,344.333l90.955,18.989
		c0,0,40.269-86.058,25.949-131.578c-14.324-45.52-96.39-38.317-96.39-38.317L623.248,344.333z"/>
	<polygon fill="#FFFFFF" stroke="#010101" stroke-width="2" stroke-miterlimit="10" points="452.589,193.012 509.988,210.458 
		497.702,153.152 	"/>
	<path fill="#FFFFFF" stroke="#010101" stroke-width="2" stroke-miterlimit="10" d="M665.909,230.227l37.341,37.34
		c31.118-21.782,0-74.683,0-74.683C693.915,239.558,665.909,230.227,665.909,230.227z"/>
	<g id="PHONE">
		<polyline fill="#FFFFFF" stroke="#010101" stroke-width="3" stroke-miterlimit="10" points="574.091,588.822 605.5,569.986 
			734.578,312.046 654.338,262.043 619.451,266.703 		"/>
		<polygon fill="#FFFFFF" stroke="#010101" stroke-width="3" stroke-miterlimit="10" points="590.378,323.683 620.608,367.875 
			550.801,500.444 506.647,500.444 476.411,546.96 574.091,588.822 706.663,323.683 619.451,266.703 		"/>
		
			<line fill="none" stroke="#010101" stroke-width="3" stroke-miterlimit="10" x1="706.663" y1="323.683" x2="734.578" y2="312.046"/>
		
			<line fill="none" stroke="#010101" stroke-width="2" stroke-miterlimit="10" x1="703.176" y1="315.533" x2="731.089" y2="265.532"/>
		<circle fill="#010101" stroke="#010101" stroke-miterlimit="10" cx="731.089" cy="265.532" r="13.955"/>
		<g id="Layer_2_2_">
			
				<ellipse fill="#FFFFFF" stroke="#010101" stroke-width="3" stroke-miterlimit="10" cx="628.342" cy="461.324" rx="62.398" ry="67.244"/>
			<path display="none" fill="#FFFFFF" stroke="#010101" stroke-width="3" stroke-miterlimit="10" d="M599.332,423.838h21.625
				H599.332z"/>
			<g>
				<path fill="#FFFFFF" stroke="#010101" stroke-width="3" stroke-miterlimit="10" d="M511.354,416.626"/>
			</g>
		</g>
	</g>
	<path fill="#FFFFFF" stroke="#010101" stroke-width="3" stroke-miterlimit="10" d="M509.392,583.824
		c0,0,32.145,24.774,64.701,6.167l4.437,60.045c0,0-38.071,33.303-60.787,0L509.392,583.824z"/>
	<path fill="#FFFFFF" stroke="#010101" stroke-width="2" stroke-miterlimit="10" d="M644.571,641.194
		c0,0-29.437,29.335-16.231,51.855"/>
	<path fill="#FFFFFF" stroke="#010101" stroke-width="2" stroke-miterlimit="10" d="M638.33,638.147c0,0-21.544,9.216-19.33,23.774"
		/>
	<path fill="#EAE5D0" stroke="#010101" stroke-width="3" stroke-miterlimit="10" d="M736.889,704.654
		c-13.458-3.188-20.115-23.786-14.854-46.016c5.259-22.223,20.445-37.654,33.906-34.471c13.469,3.19,20.121,23.795,14.858,46.009
		C765.535,692.412,750.355,707.837,736.889,704.654z"/>
	
		<ellipse transform="matrix(-0.9731 -0.2303 0.2303 -0.9731 1252.7471 1426.4375)" fill="#EAE5D0" stroke="#010101" stroke-width="3" stroke-miterlimit="10" cx="709.614" cy="640.114" rx="12.239" ry="15.253"/>
	
		<ellipse transform="matrix(-0.9731 -0.2304 0.2304 -0.9731 1303.9121 1380.5271)" fill="#EAE5D0" stroke="#010101" stroke-width="3" stroke-miterlimit="10" cx="732.55" cy="614.142" rx="10.154" ry="8.716"/>
	<path fill="#FFFFFF" stroke="#010101" stroke-width="2" stroke-miterlimit="10" d="M375.984,623.904c0,0,8.189,30.369-6.018,24.994
		"/>
	
		<ellipse fill="#434343" stroke="#010101" stroke-width="2" stroke-miterlimit="10" cx="479.833" cy="462.545" rx="29.178" ry="31.438"/>
	<path fill="#F7A7A8" stroke="#010101" stroke-width="2" stroke-miterlimit="10" d="M450.657,462.547
		c15.103-26.319,56.623,10.689,56.623,10.689C468.049,518.676,450.657,462.547,450.657,462.547z"/>
	<path fill="none" stroke="#010101" stroke-width="2" stroke-miterlimit="10" d="M752.547,192.355c0,0,43.456-8.286,48.41,35.794"/>
	<path fill="none" stroke="#010101" stroke-width="2" stroke-miterlimit="10" d="M759.647,167.457c0,0,62.386-11.897,69.501,51.383"
		/>
	<path fill="none" stroke="#010101" stroke-width="2" stroke-miterlimit="10" d="M770.482,139.569c0,0,81.976-15.625,91.324,67.521"
		/>
</g>
</svg>
