<?xml version="1.0" encoding="utf-8"?>
<!-- Generator: Adobe Illustrator 16.0.0, SVG Export Plug-In . SVG Version: 6.00 Build 0)  -->
<!DOCTYPE svg PUBLIC "-//W3C//DTD SVG 1.1//EN" "http://www.w3.org/Graphics/SVG/1.1/DTD/svg11.dtd">
<svg version="1.1" id="Layer_1" xmlns="http://www.w3.org/2000/svg" xmlns:xlink="http://www.w3.org/1999/xlink" x="0px" y="0px"
	 width="512px" height="512px" viewBox="0 0 512 512" enable-background="new 0 0 512 512" xml:space="preserve">
<path fill="#FFFFFF" d="M400,0H112c-8.836,0-16,7.164-16,16v448c0,26.467,21.533,48,48,48h224c26.469,0,48-21.533,48-48
	c0-11.812,0-436.157,0-448C416,7.164,408.838,0,400,0z M384,464c0,8.821-7.178,16-16,16H144c-8.821,0-16-7.179-16-16v-32.038
	C141.379,442.027,158.007,448,176,448h160c17.993,0,34.621-5.974,48-16.038V464z M336,416H176c-26.467,0-48-21.533-48-48V32h256v336
	C384,394.467,362.469,416,336,416z"/>
</svg>
