<?xml version="1.0" encoding="utf-8"?>
<!-- Generator: Adobe Illustrator 16.0.0, SVG Export Plug-In . SVG Version: 6.00 Build 0)  -->
<!DOCTYPE svg PUBLIC "-//W3C//DTD SVG 1.1//EN" "http://www.w3.org/Graphics/SVG/1.1/DTD/svg11.dtd">
<svg version="1.1" id="Layer_1" xmlns="http://www.w3.org/2000/svg" xmlns:xlink="http://www.w3.org/1999/xlink" x="0px" y="0px"
	 width="1000px" height="1000px" viewBox="0 0 1000 1000" enable-background="new 0 0 1000 1000" xml:space="preserve">
<path fill="#FFFFFF" stroke="#000000" stroke-width="20" stroke-miterlimit="10" d="M201.705,709.259
	c0,0,162.795,13.241,200.795,41.241s-96.775-151.072-122.388-144.536"/>
<path fill="#FFFFFF" stroke="#000000" stroke-width="20" stroke-miterlimit="10" d="M201.705,709.259
	c0,0,162.795,13.241,200.795,41.241s-96.775-151.072-122.388-144.536"/>
<g>
	<path fill="#FFFFFF" stroke="#000000" stroke-width="20" stroke-miterlimit="10" d="M353.927,900.384c0,41.25-33.75,75-75.001,75
		H187.5c-41.25,0-75-33.75-75-75V292.5c0-41.25,33.75-75,75-75h91.426c41.251,0,75.001,33.75,75.001,75V900.384z"/>
</g>
<polyline fill="#FFFFFF" stroke="#000000" stroke-width="20" stroke-miterlimit="10" points="195.705,241.5 195.705,71.5 
	268.297,71.5 268.297,241.5 "/>
<rect x="195.705" y="19.103" fill="#FFFFFF" stroke="#000000" stroke-width="20" stroke-miterlimit="10" width="72.592" height="54.795"/>
<path fill="#FFFFFF" stroke="#000000" stroke-width="20" stroke-miterlimit="10" d="M209.5,36.5"/>
<path display="none" d="M242.5,27.5c-6.449,0-6.449,10,0,10S248.948,27.5,242.5,27.5z"/>
<path display="none" d="M243.5,53.5c-2.497,0-4.022,1.501-4.586,3.339c-0.801-0.811-1.936-1.339-3.414-1.339c-6.449,0-6.449,10,0,10
	c2.497,0,4.023-1.501,4.586-3.339c0.802,0.81,1.937,1.339,3.414,1.339C249.948,63.5,249.948,53.5,243.5,53.5z"/>
<path display="none" d="M239.5,54.5c-6.449,0-6.449,10,0,10S245.948,54.5,239.5,54.5z"/>
<path display="none" d="M217.5,27.5c-6.449,0-6.449,10,0,10S223.948,27.5,217.5,27.5z"/>
<path display="none" d="M216.5,44.5c-6.449,0-6.449,10,0,10S222.948,44.5,216.5,44.5z"/>
<path display="none" d="M212.5,57.5c-6.449,0-6.449,10,0,10S218.948,57.5,212.5,57.5z"/>
<path display="none" d="M230.5,37.5c-6.449,0-6.449,10,0,10S236.948,37.5,230.5,37.5z"/>
<path fill="#FFFFFF" stroke="#000000" stroke-width="20" stroke-miterlimit="10" d="M675.5,541.5c100.5,11,108.5-180,108.5-180
	l9.5-9h-217l10,9c0,0,8,191,108.5,180"/>
<line fill="#FFFFFF" stroke="#000000" stroke-width="20" stroke-miterlimit="10" x1="685" y1="554.5" x2="685" y2="657.5"/>
<line fill="#FFFFFF" stroke="#000000" stroke-width="20" stroke-miterlimit="10" x1="648.5" y1="657.5" x2="722.5" y2="657.5"/>
</svg>
