<?xml version="1.0" encoding="utf-8"?>
<!-- Generator: Adobe Illustrator 16.0.0, SVG Export Plug-In . SVG Version: 6.00 Build 0)  -->
<!DOCTYPE svg PUBLIC "-//W3C//DTD SVG 1.1//EN" "http://www.w3.org/Graphics/SVG/1.1/DTD/svg11.dtd">
<svg version="1.1" xmlns="http://www.w3.org/2000/svg" xmlns:xlink="http://www.w3.org/1999/xlink" x="0px" y="0px"  viewBox="0 0 1000 1000" enable-background="new 0 0 1000 1000" xml:space="preserve">
<g id="Layer_1" display="none">
	<g display="inline">
		<path fill="none" stroke="#FFFFFF" stroke-width="20" stroke-miterlimit="10" d="M99,187.875V701c0,5.5,4.025,12.013,8.944,14.473
			l252.111,126.055C364.975,843.987,369,841.5,369,836V636.625c0-5.5,0-14.5,0-20V316c0-5.5-4.025-12.013-8.944-14.472
			L107.944,175.472c-4.919-2.459-4.675-5.895,0.542-7.634L494.513,39.162C499.731,37.423,504,40.5,504,46v520
			c0,5.5-4.327,11.236-9.615,12.747l-108.51,31.003"/>
	</g>
	
		<line display="inline" fill="#FFFFFF" stroke="#FFFFFF" stroke-width="20" stroke-miterlimit="10" x1="233.968" y1="204.667" x2="453.407" y2="120.459"/>
	
		<line display="inline" fill="#FFFFFF" stroke="#FFFFFF" stroke-width="20" stroke-miterlimit="10" x1="234" y1="272.083" x2="453.439" y2="187.875"/>
	
		<line display="inline" fill="#FFFFFF" stroke="#FFFFFF" stroke-width="20" stroke-miterlimit="10" x1="250.875" y1="339.583" x2="470.314" y2="255.375"/>
</g>
<g id="Layer_2" display="none">
	<g display="inline">
		<g>
			<path fill="none" stroke="#FFFFFF" stroke-width="20" stroke-miterlimit="10" d="M909,768.5c0,5.5-4.5,10-10,10H244
				c-5.5,0-10-4.5-10-10V400.374c0-5.5,0-13.796,0-18.437s4.5-8.437,10-8.437h655c5.5,0,10,4.5,10,10V768.5z"/>
		</g>
		<g>
			<path fill="none" stroke="#FFFFFF" stroke-width="20" stroke-miterlimit="10" d="M909,373.501L580.075,570.855
				c-4.717,2.829-12.434,2.829-17.15,0L234,373.501"/>
		</g>
	</g>
</g>
<g id="Layer_3">
	<path fill="none" stroke="#B5B5B6" stroke-width="20" stroke-miterlimit="10" d="M172.285,368.555
		c-37.362,37.362-97.938,37.362-135.3,0c-29.89-29.89-29.89-78.35,0-108.24c23.912-23.912,62.68-23.912,86.592,0
		c19.129,19.129,19.129,50.144,0,69.273c-15.303,15.304-40.115,15.304-55.418,0c-12.243-12.243-12.243-32.092,0-44.335
		c9.794-9.794,25.674-9.794,35.468,0c7.835,7.835,7.835,20.539,0,28.375c-6.268,6.268-16.431,6.268-22.699,0
		c-5.015-5.015-5.015-13.146,0-18.16c4.012-4.012,10.516-4.012,14.528,0c3.209,3.209,3.209,8.413,0,11.622
		c-2.567,2.567-6.73,2.567-9.298,0c-2.054-2.054-2.054-5.384,0-7.438"/>
	
		<line fill="none" stroke="#B5B5B6" stroke-width="20" stroke-miterlimit="10" x1="104.635" y1="354.905" x2="608.635" y2="147.905"/>
	<line fill="none" stroke="#B5B5B6" stroke-width="20" stroke-miterlimit="10" x1="68.635" y1="237.904" x2="579.552" y2="48.62"/>
	<line fill="none" stroke="#B5B5B6" stroke-width="20" stroke-miterlimit="10" x1="729" y1="750.904" x2="110.33" y2="398.828"/>
	<line fill="none" stroke="#B5B5B6" stroke-width="20" stroke-miterlimit="10" x1="1179" y1="454.868" x2="603" y2="138.904"/>
	<path fill="none" stroke="#B5B5B6" stroke-width="20" stroke-miterlimit="10" d="M576,48.904c0,0,81,27,45,90"/>
	<line fill="none" stroke="#B5B5B6" stroke-width="20" stroke-miterlimit="10" x1="1161" y1="408.904" x2="720.768" y2="756"/>
</g>
</svg>
